<?xml version="1.0" encoding="iso-8859-1"?>
<!-- Generator: Adobe Illustrator 19.0.0, SVG Export Plug-In . SVG Version: 6.00 Build 0)  -->
<svg version="1.1" id="Capa_1" xmlns="http://www.w3.org/2000/svg" xmlns:xlink="http://www.w3.org/1999/xlink" x="0px" y="0px"
	 viewBox="0 0 512 512" style="enable-background:new 0 0 512 512;" xml:space="preserve">
<path style="fill:#C23D40;" d="M442.709,270.515h34.132c28.367-18.891,42.205-54.833,31.6-89.046
	c-5.348-17.264-16.075-31.366-29.78-41.056c-13.157-9.293-29.058-14.509-45.56-14.509c-2.42,0-4.85,0.112-7.29,0.335
	c-5.358,0.508-10.747,1.566-16.095,3.223l-23.507,7.28c-5.612,1.739-11.56-1.393-13.299-7.005l-7.168-23.131
	c-12.902-41.625-57.11-64.919-98.736-52.016c-14.672,4.545-27.066,12.984-36.399,23.822c-9.334,10.849-15.607,24.087-18.037,38.26
	c39.968,66.312,93.611,153.843,93.611,153.843h69.016v36.477h67.511v-36.477H442.709z"/>
<path style="fill:#7ACBA7;" d="M394.719,490.74H121.216c0-14.184,5.745-27.015,15.038-36.308
	c9.283-9.293,22.124-15.038,36.308-15.038l1.728-57.734h167.355l1.728,57.734C371.74,439.395,394.719,462.373,394.719,490.74z"/>
<path style="fill:#57BF93;" d="M203.065,439.395H174.29h-1.728c-14.184,0-27.025,5.745-36.308,15.038
	c-9.293,9.293-15.038,22.124-15.038,36.308h30.504c0-14.183,5.745-27.015,15.038-36.308
	C176.04,445.14,188.882,439.395,203.065,439.395z"/>
<path style="fill:#E63950;" d="M478.66,140.413c13.706,9.69,24.432,23.792,29.78,41.056c10.605,34.213-3.233,70.155-31.6,89.046
	h-34.132v65.986c0,9.252-7.626,16.878-16.878,16.878s-16.878-7.626-16.878-16.878v-28.164c0,9.252-7.626,16.878-16.878,16.878
	c-9.252,0-16.878-7.626-16.878-16.878v-37.823H306.18c0,0-53.643-87.531-93.611-153.843c2.43-14.173,8.703-27.411,18.037-38.26
	c9.334-10.838,21.728-19.277,36.399-23.822c41.625-12.902,85.833,10.391,98.736,52.016l7.168,23.131
	c1.739,5.612,7.687,8.744,13.299,7.005l23.507-7.28c5.348-1.657,10.737-2.715,16.095-3.223c2.44-0.224,4.87-0.336,7.29-0.336
	C449.602,125.904,465.504,131.12,478.66,140.413z"/>
<path style="fill:#EC5569;" d="M306.181,270.515l25.967-50.695c20.457-39.938,4.667-88.893-35.271-109.36
	c-27.981-14.326-60.374-10.869-84.308,6.212c-10.228,7.3-18.911,17.102-25.042,29.058l-11.56,22.561
	c-2.755,5.379-9.344,7.504-14.722,4.748l-22.195-11.377c-11.672-5.978-24.117-8.856-36.389-8.937
	c-9.923-0.081-19.755,1.667-28.967,5.104c-18.383,6.822-34.356,20.274-44.004,39.104c-6.07,11.855-8.947,24.514-8.947,36.979
	c0,12.75,3.01,25.296,8.693,36.603c7.473,14.875,19.572,27.594,35.525,35.769l166.827,85.467c5.379,2.755,11.977,0.63,14.733-4.748
	L306.181,270.515z"/>
<path style="fill:#E63950;" d="M95.464,306.284c-15.953-8.175-28.052-20.894-35.525-35.769c-5.684-11.306-8.693-23.853-8.693-36.603
	c0-12.465,2.877-25.124,8.947-36.979c9.649-18.83,25.622-32.281,44.004-39.104c4.259-1.589,8.655-2.8,13.127-3.653
	c-4.876-0.936-9.783-1.419-14.664-1.451c-9.923-0.081-19.755,1.667-28.967,5.104c-18.383,6.822-34.356,20.274-44.004,39.104
	c-6.07,11.855-8.947,24.514-8.947,36.979c0,12.75,3.01,25.296,8.693,36.603c7.473,14.875,19.572,27.594,35.525,35.769
	l166.827,85.467c5.379,2.755,11.977,0.63,14.733-4.748l1.352-2.639L95.464,306.284z"/>
<path style="fill:#7ACBA7;" d="M476.841,270.515h-34.132v65.53c0,9.096-7.007,16.894-16.093,17.316
	c-9.602,0.446-17.662-7.347-17.662-16.86v-28.164c0,9.513-8.061,17.306-17.662,16.86c-9.087-0.422-16.093-8.219-16.093-17.316
	v-37.367h-69.016H29.435H12.561c-4.005,0-7.166,3.354-6.995,7.356c3.854,89.826,77.952,161.525,168.723,161.525h167.355
	c46.617,0,88.843-18.911,119.406-49.474c28.947-28.957,47.442-68.357,49.317-112.05c0.172-4.002-2.989-7.356-6.995-7.356
	L476.841,270.515L476.841,270.515z"/>
<path style="fill:#F7CF69;" d="M442.709,336.501c0,9.252-7.626,16.878-16.878,16.878c-9.252,0-16.878-7.626-16.878-16.878v-28.164
	c0,9.252-7.626,16.878-16.878,16.878c-9.252,0-16.878-7.626-16.878-16.878v-1.346H9.376c6.022,27.325,18.664,52.169,36.161,72.768
	H470.4c17.495-20.602,30.136-45.444,36.159-72.768h-63.85L442.709,336.501L442.709,336.501z"/>
<path style="fill:#57BF93;" d="M35.913,270.515h-6.479H12.561c-4.005,0-7.166,3.354-6.995,7.356
	c3.854,89.826,77.952,161.525,168.723,161.525h30.504C111.559,439.395,35.913,363.75,35.913,270.515z"/>
<path style="fill:#FFB64C;" d="M76.041,379.759c-17.497-20.599-30.139-45.443-36.161-72.768H9.376c0,0.002,0.001,0.003,0.001,0.005
	c4.516,20.489,12.754,39.582,23.969,56.536c0.003,0.005,0.007,0.01,0.01,0.015c3.738,5.65,7.807,11.063,12.18,16.21l0.001,0.001
	L76.041,379.759L76.041,379.759z"/>
<path style="fill:#F7CF69;" d="M73.886,65.829c0.864,3.467,3.975,5.783,7.393,5.783c0.611,0,1.231-0.074,1.851-0.228
	c4.086-1.019,6.573-5.158,5.554-9.244l-8.751-35.099c-1.019-4.086-5.155-6.573-9.244-5.554c-4.086,1.019-6.573,5.158-5.554,9.244
	L73.886,65.829z"/>
<g>
	<path style="fill:#168C80;" d="M104.55,215.426c-2.587,0-5.11-1.316-6.541-3.694L1.093,50.7c-2.171-3.608-1.007-8.294,2.602-10.466
		c3.61-2.172,8.294-1.006,10.466,2.602l96.915,161.03c2.172,3.608,1.007,8.294-2.601,10.466
		C107.244,215.074,105.888,215.426,104.55,215.426z"/>
	<path style="fill:#168C80;" d="M116.036,211.38c-3.419,0-6.529-2.316-7.393-5.783L81.407,96.357
		c-1.019-4.086,1.468-8.225,5.554-9.244c4.088-1.019,8.225,1.468,9.244,5.554l27.235,109.241c1.019,4.087-1.468,8.225-5.554,9.244
		C117.267,211.306,116.646,211.38,116.036,211.38z"/>
</g>
<path style="fill:#E63950;" d="M138.388,203.371c-0.305-4.201-3.953-7.347-8.158-7.054l-21.054,1.532
	c-0.008,0.001-0.015,0.001-0.023,0.002l-0.024,0.002c-0.045,0.003-0.088,0.012-0.133,0.016c-0.204,0.018-0.407,0.041-0.61,0.076
	c-0.092,0.016-0.18,0.039-0.271,0.058c-0.153,0.032-0.306,0.063-0.458,0.105c-0.119,0.033-0.233,0.074-0.349,0.112
	c-0.119,0.039-0.239,0.075-0.356,0.12c-0.139,0.053-0.272,0.116-0.407,0.177c-0.091,0.041-0.183,0.078-0.273,0.123
	c-0.162,0.081-0.317,0.172-0.472,0.264c-0.06,0.035-0.121,0.066-0.18,0.104c-0.196,0.124-0.384,0.257-0.568,0.397
	c-0.017,0.013-0.035,0.023-0.052,0.036l-0.009,0.007c-0.012,0.009-0.023,0.018-0.035,0.027L88.31,212.448
	c-3.321,2.59-3.914,7.381-1.325,10.703c1.504,1.928,3.749,2.937,6.019,2.937c1.639,0,3.291-0.527,4.684-1.612l14.857-11.58
	l18.788-1.367C135.535,211.223,138.693,207.571,138.388,203.371z"/>
<path style="fill:#F2D1A5;" d="M454.698,196.646c-1.978,0-3.955-0.765-5.449-2.29c-2.947-3.009-2.896-7.837,0.113-10.783
	c11.263-11.03,19.413-27.341,22.361-44.75c2.806-16.568,0.711-32.754-5.736-45.697c-7.777,5.997-17.163,10.444-27.22,12.817
	c-4.802,1.14-9.66,1.719-14.429,1.719c-6.249,0-12.005-0.996-17.106-2.96c-8.234-3.153-15.22-9.747-18.221-17.203
	c-2.453-6.098-2.289-12.427,0.477-18.304c6.535-13.875,23.15-17.425,29.99-18.307c13.137-1.684,26.99,1.8,38.014,9.564
	c3.639,2.562,6.998,5.447,10.05,8.627c6.499-10.747,7.109-25.344,1.431-35.721c-2.022-3.695-0.665-8.329,3.029-10.35
	c3.697-2.021,8.329-0.665,10.35,3.029c8.443,15.431,7.537,36.221-2.254,51.735c-0.888,1.403-1.846,2.777-2.868,4.115
	c9.72,16.544,13.191,37.863,9.529,59.482c-3.524,20.815-13.016,39.673-26.727,53.1C458.549,195.921,456.622,196.646,454.698,196.646
	z M426.087,65.718c-1.562,0-3.12,0.098-4.664,0.296c-6.988,0.901-15.425,3.917-18.138,9.676c-0.938,1.993-0.979,3.994-0.127,6.114
	c1.424,3.539,5.258,7.019,9.539,8.659c3.358,1.293,7.27,1.946,11.639,1.946c3.534,0,7.309-0.453,10.918-1.309
	c8.278-1.953,15.924-5.637,22.105-10.585c-2.591-2.824-5.484-5.366-8.649-7.594C442.071,68.245,434.033,65.718,426.087,65.718z"/>
<g>
	<path style="fill:#CC2E43;" d="M470.418,205.09l-8.768-19.2c-0.004-0.01-0.009-0.02-0.014-0.03l-0.003-0.007
		c-0.007-0.016-0.016-0.03-0.024-0.046c-0.099-0.213-0.206-0.422-0.325-0.626c-0.039-0.067-0.084-0.129-0.125-0.195
		c-0.091-0.146-0.182-0.292-0.283-0.432c-0.065-0.09-0.137-0.174-0.205-0.26c-0.085-0.107-0.168-0.217-0.259-0.32
		c-0.093-0.105-0.192-0.201-0.289-0.3c-0.076-0.077-0.149-0.157-0.229-0.232c-0.128-0.12-0.264-0.23-0.4-0.339
		c-0.058-0.047-0.112-0.097-0.172-0.143c-0.189-0.144-0.386-0.279-0.587-0.404c-0.013-0.008-0.024-0.018-0.037-0.025l-0.006-0.003
		c-0.01-0.006-0.02-0.013-0.031-0.019l-17.97-11.08c-3.586-2.212-8.284-1.096-10.493,2.488c-2.211,3.585-1.096,8.283,2.488,10.493
		l16.035,9.887l7.822,17.13c1.28,2.804,4.048,4.46,6.941,4.46c1.059,0,2.136-0.222,3.163-0.691
		C470.48,213.444,472.168,208.921,470.418,205.09z"/>
	<path style="fill:#CC2E43;" d="M311.79,105.715c-22.369-11.453-47.554-11.53-68.986-2.377c17.676-3.801,36.723-1.762,54.074,7.122
		c39.938,20.467,55.727,69.423,35.271,109.36l-25.967,50.695l-0.002,0.004h12.482l2.432-4.749l25.967-50.695
		C367.517,175.138,351.727,126.182,311.79,105.715z"/>
</g>
<g>
</g>
<g>
</g>
<g>
</g>
<g>
</g>
<g>
</g>
<g>
</g>
<g>
</g>
<g>
</g>
<g>
</g>
<g>
</g>
<g>
</g>
<g>
</g>
<g>
</g>
<g>
</g>
<g>
</g>
</svg>
